<svg xmlns="http://www.w3.org/2000/svg" width="12.735" height="8.98" viewBox="0 0 12.735 8.98">
  <g id="Details_List_2290853" data-name="Details List_2290853" transform="translate(-49.75 -44.344)">
    <line id="Line_34" data-name="Line 34" x2="7" transform="translate(55.235 51.696)" fill="none" stroke="#202020" stroke-linecap="round" stroke-linejoin="round" stroke-miterlimit="2.613" stroke-width="0.5"/>
    <line id="Line_35" data-name="Line 35" x2="7" transform="translate(55.235 45.972)" fill="none" stroke="#202020" stroke-linecap="round" stroke-linejoin="round" stroke-miterlimit="2.613" stroke-width="0.5"/>
    <path id="Path_1015" data-name="Path 1015" d="M124.131,118.506a.2.2,0,0,1-.2.2" transform="translate(-71.374 -71.357)" fill="none" stroke="#202020" stroke-linecap="round" stroke-linejoin="round" stroke-miterlimit="2.613" stroke-width="0.5"/>
    <line id="Line_36" data-name="Line 36" x1="2.355" transform="translate(50.201 47.35)" fill="none" stroke="#202020" stroke-linecap="round" stroke-linejoin="round" stroke-miterlimit="2.613" stroke-width="0.5"/>
    <path id="Path_1016" data-name="Path 1016" d="M50.2,118.707a.2.2,0,0,1-.2-.2" transform="translate(0 -71.357)" fill="none" stroke="#202020" stroke-linecap="round" stroke-linejoin="round" stroke-miterlimit="2.613" stroke-width="0.5"/>
    <line id="Line_37" data-name="Line 37" y1="2.353" transform="translate(50 44.796)" fill="none" stroke="#202020" stroke-linecap="round" stroke-linejoin="round" stroke-miterlimit="2.613" stroke-width="0.5"/>
    <path id="Path_1017" data-name="Path 1017" d="M50,44.8a.2.2,0,0,1,.2-.2" fill="none" stroke="#202020" stroke-linecap="round" stroke-linejoin="round" stroke-miterlimit="2.613" stroke-width="0.5"/>
    <line id="Line_38" data-name="Line 38" x2="2.355" transform="translate(50.201 44.594)" fill="none" stroke="#202020" stroke-linecap="round" stroke-linejoin="round" stroke-miterlimit="2.613" stroke-width="0.5"/>
    <path id="Path_1018" data-name="Path 1018" d="M123.93,44.6a.2.2,0,0,1,.2.2" transform="translate(-71.374 -0.001)" fill="none" stroke="#202020" stroke-linecap="round" stroke-linejoin="round" stroke-miterlimit="2.613" stroke-width="0.5"/>
    <line id="Line_39" data-name="Line 39" y2="2.353" transform="translate(52.757 44.796)" fill="none" stroke="#202020" stroke-linecap="round" stroke-linejoin="round" stroke-miterlimit="2.613" stroke-width="0.5"/>
    <path id="Path_1019" data-name="Path 1019" d="M124.131,284.074a.2.2,0,0,1-.2.2" transform="translate(-71.374 -231.2)" fill="none" stroke="#202020" stroke-linecap="round" stroke-linejoin="round" stroke-miterlimit="2.613" stroke-width="0.5"/>
    <line id="Line_40" data-name="Line 40" x1="2.355" transform="translate(50.201 53.074)" fill="none" stroke="#202020" stroke-linecap="round" stroke-linejoin="round" stroke-miterlimit="2.613" stroke-width="0.5"/>
    <path id="Path_1020" data-name="Path 1020" d="M50.2,284.274a.2.2,0,0,1-.2-.2" transform="translate(0 -231.2)" fill="none" stroke="#202020" stroke-linecap="round" stroke-linejoin="round" stroke-miterlimit="2.613" stroke-width="0.5"/>
    <line id="Line_41" data-name="Line 41" y1="2.354" transform="translate(50 50.52)" fill="none" stroke="#202020" stroke-linecap="round" stroke-linejoin="round" stroke-miterlimit="2.613" stroke-width="0.5"/>
    <path id="Path_1021" data-name="Path 1021" d="M50,210.33a.2.2,0,0,1,.2-.2" transform="translate(0 -159.811)" fill="none" stroke="#202020" stroke-linecap="round" stroke-linejoin="round" stroke-miterlimit="2.613" stroke-width="0.5"/>
    <line id="Line_42" data-name="Line 42" x2="2.355" transform="translate(50.201 50.317)" fill="none" stroke="#202020" stroke-linecap="round" stroke-linejoin="round" stroke-miterlimit="2.613" stroke-width="0.5"/>
    <path id="Path_1022" data-name="Path 1022" d="M123.93,210.128a.2.2,0,0,1,.2.2" transform="translate(-71.374 -159.811)" fill="none" stroke="#202020" stroke-linecap="round" stroke-linejoin="round" stroke-miterlimit="2.613" stroke-width="0.5"/>
    <line id="Line_43" data-name="Line 43" y2="2.354" transform="translate(52.757 50.52)" fill="none" stroke="#202020" stroke-linecap="round" stroke-linejoin="round" stroke-miterlimit="2.613" stroke-width="0.5"/>
  </g>
</svg>
