<svg xmlns="http://www.w3.org/2000/svg" width="11.646" height="16.632" viewBox="0 0 11.646 16.632">
  <g id="Group_1966" data-name="Group 1966" transform="translate(-233.75 -465.75)">
    <g id="List_simpline_39_2305601" data-name="List simpline_39_2305601" transform="translate(234 466)">
      <path id="Path_1027" data-name="Path 1027" d="M16.226,11H14.173A1.173,1.173,0,0,0,13,12.173V23.612a1.173,1.173,0,0,0,1.173,1.173h8.8a1.173,1.173,0,0,0,1.173-1.173V12.173A1.173,1.173,0,0,0,22.972,11H20.919" transform="translate(-13 -8.654)" fill="none" stroke="#202020" stroke-linecap="round" stroke-linejoin="round" stroke-width="0.5"/>
      <circle id="Ellipse_20" data-name="Ellipse 20" cx="0.889" cy="0.889" r="0.889" transform="translate(4.744 0)" fill="none" stroke="#202020" stroke-linecap="round" stroke-linejoin="round" stroke-width="0.5"/>
      <path id="Path_1028" data-name="Path 1028" d="M24.467,9h2.346a1.467,1.467,0,0,1,1.467,1.467H23A1.467,1.467,0,0,1,24.467,9Z" transform="translate(-20.067 -7.24)" fill="none" stroke="#202020" stroke-linecap="round" stroke-linejoin="round" stroke-width="0.5"/>
      <circle id="Ellipse_21" data-name="Ellipse 21" cx="0.593" cy="0.593" r="0.593" transform="translate(2.372 6.522)" fill="#202020"/>
      <line id="Line_44" data-name="Line 44" x2="3.558" transform="translate(4.744 7.115)" fill="none" stroke="#202020" stroke-linecap="round" stroke-linejoin="round" stroke-width="0.5"/>
      <circle id="Ellipse_22" data-name="Ellipse 22" cx="0.593" cy="0.593" r="0.593" transform="translate(2.372 8.894)" fill="#202020"/>
      <line id="Line_45" data-name="Line 45" x2="3.558" transform="translate(4.744 9.487)" fill="none" stroke="#202020" stroke-linecap="round" stroke-linejoin="round" stroke-width="0.5"/>
      <circle id="Ellipse_23" data-name="Ellipse 23" cx="0.593" cy="0.593" r="0.593" transform="translate(2.372 11.266)" fill="#202020"/>
      <line id="Line_46" data-name="Line 46" x2="3.558" transform="translate(4.744 11.859)" fill="none" stroke="#202020" stroke-linecap="round" stroke-linejoin="round" stroke-width="0.5"/>
    </g>
  </g>
</svg>
