<svg xmlns="http://www.w3.org/2000/svg" width="7.104" height="9" viewBox="0 0 7.104 9">
  <g id="Location_74739" transform="translate(-13.004 -15.6)">
    <g id="Group_10" data-name="Group 10" transform="translate(13.004 15.6)">
      <g id="Group_9" data-name="Group 9">
        <path id="Path_16" data-name="Path 16" d="M25.055,19.018l-.26.307c1.083.138,1.84.45,1.84.813,0,.491-1.378.889-3.079.889s-3.079-.4-3.079-.889c0-.363.757-.675,1.84-.813l-.26-.307C20.846,19.225,20,19.675,20,20.2c0,.719,1.59,1.3,3.552,1.3s3.552-.583,3.552-1.3C27.108,19.675,26.267,19.225,25.055,19.018Zm1.478-3.54a2.977,2.977,0,1,0-5.955,0c0,1.644,2.977,4.962,2.977,4.962S26.534,17.122,26.534,15.477ZM23.556,13a2.5,2.5,0,0,1,2.481,2.512c0,1.387-2.481,4.187-2.481,4.187s-2.481-2.8-2.481-4.187A2.5,2.5,0,0,1,23.556,13ZM24.8,15.229a1.241,1.241,0,1,0-1.241,1.241A1.241,1.241,0,0,0,24.8,15.229Zm-1.985,0a.744.744,0,1,1,.744.744A.744.744,0,0,1,22.812,15.229Z" transform="translate(-20.004 -12.5)" fill="#202020"/>
      </g>
    </g>
  </g>
</svg>
