<svg xmlns="http://www.w3.org/2000/svg" width="10.567" height="15.127" viewBox="0 0 10.567 15.127">
  <g id="Google_Icons-01_7123032" transform="translate(-41.4 -26.9)">
    <path id="Path_1006" data-name="Path 1006" d="M54.929,27.152A5.237,5.237,0,0,0,49.3,28.787l2.5,2.091Z" transform="translate(-6.658 0)" fill="#1a73e8"/>
    <path id="Path_1007" data-name="Path 1007" d="M42.642,38.9A5.268,5.268,0,0,0,41.4,42.3a6.124,6.124,0,0,0,.519,2.516l3.208-3.805Z" transform="translate(0 -10.113)" fill="#ea4335"/>
    <path id="Path_1008" data-name="Path 1008" d="M66.741,31.419a2.007,2.007,0,0,1,2.013,2.013,1.981,1.981,0,0,1-.472,1.305s1.588-1.9,3.145-3.742A5.307,5.307,0,0,0,68.345,28.4L65.2,32.142a1.981,1.981,0,0,1,1.541-.723" transform="translate(-20.058 -1.264)" fill="#4285f4"/>
    <path id="Path_1009" data-name="Path 1009" d="M49.549,55.6a2.007,2.007,0,0,1-2.013-2.013,1.97,1.97,0,0,1,.472-1.289L44.8,56.105a17.781,17.781,0,0,0,2.39,3.412l3.9-4.639a2.005,2.005,0,0,1-1.541.723" transform="translate(-2.865 -21.406)" fill="#fbbc04"/>
    <path id="Path_1010" data-name="Path 1010" d="M63.821,54.639c1.761-2.752,3.821-4.01,3.821-7.2a5.319,5.319,0,0,0-.6-2.437L60,53.365c.3.393.6.8.9,1.274,1.069,1.651.77,2.642,1.462,2.642s.393-.991,1.462-2.642" transform="translate(-15.675 -15.254)" fill="#34a853"/>
  </g>
</svg>
