<svg xmlns="http://www.w3.org/2000/svg" width="14.08" height="15.62" viewBox="0 0 14.08 15.62">
  <g id="Group_2548" data-name="Group 2548" transform="translate(-434.234 -87.4)">
    <g id="bell_1_" data-name="bell (1)" transform="translate(434.234 87.4)">
      <g id="Group_3" data-name="Group 3" transform="translate(4.962)">
        <g id="Group_2" data-name="Group 2">
          <path id="Path_1" data-name="Path 1" d="M189.968,0a2.08,2.08,0,0,0-2.078,2.078V2.7h1.075V2.078a1,1,0,0,1,2.006,0V2.7h1.075V2.078A2.08,2.08,0,0,0,189.968,0Z" transform="translate(-187.89)" fill="#202020"/>
        </g>
      </g>
      <g id="Group_5" data-name="Group 5" transform="translate(4.496 13.094)">
        <g id="Group_4" data-name="Group 4" transform="translate(0)">
          <path id="Path_2" data-name="Path 2" d="M176.637,429.2a1.453,1.453,0,0,1-1.451,1.451h-.036A1.453,1.453,0,0,1,173.7,429.2h-1.075a2.529,2.529,0,0,0,2.526,2.526h.036a2.529,2.529,0,0,0,2.526-2.526Z" transform="translate(-172.624 -429.205)" fill="#202020"/>
        </g>
      </g>
      <g id="Group_7" data-name="Group 7" transform="translate(0 1.988)">
        <g id="Group_6" data-name="Group 6" transform="translate(0)">
          <path id="Path_3" data-name="Path 3" d="M39.244,76.079,37.717,73.7V70.655a5.428,5.428,0,1,0-10.855,0V73.7l-1.527,2.375a.537.537,0,0,0,.452.828h13a.537.537,0,0,0,.452-.828Zm-12.473-.247,1.08-1.68a.537.537,0,0,0,.085-.291V70.655a4.353,4.353,0,1,1,8.706,0v3.206a.537.537,0,0,0,.085.291l1.08,1.68Z" transform="translate(-25.25 -65.174)" fill="#202020"/>
        </g>
      </g>
    </g>
  </g>
</svg>
