<svg id="Group_1840" data-name="Group 1840" xmlns="http://www.w3.org/2000/svg" width="21.134" height="21.133" viewBox="0 0 21.134 21.133">
  <g id="Group_1839" data-name="Group 1839">
    <path id="Path_926" data-name="Path 926" d="M23.769,8.1H3.364a.364.364,0,0,1-.346-.48L4.312,3.747A1.093,1.093,0,0,1,5.347,3h16.44a1.093,1.093,0,0,1,1.037.747l1.291,3.874a.364.364,0,0,1-.346.48ZM3.87,7.372H23.263L22.132,3.978a.364.364,0,0,0-.345-.249H5.347A.364.364,0,0,0,5,3.978Z" transform="translate(-3 -3)"/>
    <path id="Path_927" data-name="Path 927" d="M22.312,31.761H4.822A1.824,1.824,0,0,1,3,29.939V15.364A.364.364,0,0,1,3.364,15h20.4a.364.364,0,0,1,.364.364V29.939A1.824,1.824,0,0,1,22.312,31.761ZM3.729,15.729v14.21a1.093,1.093,0,0,0,1.093,1.093h17.49A1.093,1.093,0,0,0,23.4,29.939V15.729Z" transform="translate(-3 -10.628)"/>
    <path id="Path_928" data-name="Path 928" d="M28.028,20.1a.364.364,0,0,1-.182-.049l-.4-.231-.4.231a.364.364,0,0,1-.364,0l-.4-.231-.4.231a.364.364,0,0,1-.364,0l-.4-.231-.4.231a.364.364,0,0,1-.364,0l-.4-.231-.4.231A.364.364,0,0,1,23,19.737V15.521c0-.306.291-.521.707-.521h5.144c.416,0,.707.214.707.521v4.216a.364.364,0,0,1-.547.316l-.4-.231-.4.231A.364.364,0,0,1,28.028,20.1Zm-1.749-1.065a.364.364,0,0,1,.182.049l.4.231.4-.231a.364.364,0,0,1,.364,0l.4.231.4-.231a.364.364,0,0,1,.364,0l.036.021V15.729h-5.1v3.377l.036-.021a.364.364,0,0,1,.364,0l.4.231.4-.231a.364.364,0,0,1,.364,0l.4.231.4-.231A.364.364,0,0,1,26.279,19.036Z" transform="translate(-15.713 -10.628)"/>
    <path id="Path_929" data-name="Path 929" d="M29.195,8.1h-5.83a.364.364,0,0,1-.359-.424L23.734,3.3a.364.364,0,0,1,.359-.3h4.372a.364.364,0,0,1,.359.3l.729,4.372a.364.364,0,0,1-.359.424Zm-5.4-.729h4.969l-.607-3.644H24.4Z" transform="translate(-15.713 -3)"/>
    <path id="Path_930" data-name="Path 930" d="M9.551,19.729H7.364a.364.364,0,0,1,0-.729H9.551a.364.364,0,0,1,0,.729Z" transform="translate(-5.542 -13.17)"/>
    <path id="Path_931" data-name="Path 931" d="M11.737,55.729H7.364a.364.364,0,1,1,0-.729h4.372a.364.364,0,1,1,0,.729Z" transform="translate(-5.542 -36.053)"/>
    <path id="Path_932" data-name="Path 932" d="M11.737,50.729H7.364a.364.364,0,0,1,0-.729h4.372a.364.364,0,0,1,0,.729Z" transform="translate(-5.542 -32.875)"/>
    <path id="Path_933" data-name="Path 933" d="M9.551,45.729H7.364a.364.364,0,0,1,0-.729H9.551a.364.364,0,0,1,0,.729Z" transform="translate(-5.542 -29.697)"/>
    <path id="Path_934" data-name="Path 934" d="M11.737,40.729H7.364a.364.364,0,0,1,0-.729h4.372a.364.364,0,0,1,0,.729Z" transform="translate(-5.542 -26.518)"/>
    <path id="Path_935" data-name="Path 935" d="M18.093,19.729h-.729a.364.364,0,0,1,0-.729h.729a.364.364,0,1,1,0,.729Z" transform="translate(-11.899 -13.17)"/>
    <path id="Path_936" data-name="Path 936" d="M45.466,42.016h-5.1A.364.364,0,0,1,40,41.652V34.364A.364.364,0,0,1,40.364,34h5.1a.364.364,0,0,1,.364.364v7.287A.364.364,0,0,1,45.466,42.016Zm-4.737-.729H45.1V34.729H40.729Z" transform="translate(-26.518 -22.705)"/>
    <path id="Path_937" data-name="Path 937" d="M46.551,40.2a.364.364,0,0,1-.292-.146l-.8-1.069-.8,1.069a.364.364,0,1,1-.583-.437l1.093-1.457a.377.377,0,0,1,.583,0l1.093,1.457a.364.364,0,0,1-.291.583Z" transform="translate(-29.061 -25.261)"/>
    <path id="Path_938" data-name="Path 938" d="M47.364,43.1A.364.364,0,0,1,47,42.737V38.364a.364.364,0,0,1,.729,0v4.372A.364.364,0,0,1,47.364,43.1Z" transform="translate(-30.968 -25.247)"/>
  </g>
</svg>
